<svg width="295" height="196" viewBox="0 0 295 196" fill="none" xmlns="http://www.w3.org/2000/svg">
<path fill-rule="evenodd" clip-rule="evenodd" d="M280.674 136.129C281.913 136.837 283.154 137.147 284.482 137.147H284.525C285.856 137.147 287.098 136.837 288.336 136.129C289.547 135.493 290.537 134.504 291.173 133.293C291.842 132.135 292.193 130.821 292.19 129.484C292.19 128.11 291.88 126.826 291.173 125.584C290.506 124.344 289.532 123.414 288.294 122.748C287.052 122.084 285.814 121.732 284.525 121.732H284.482C283.165 121.772 281.875 122.12 280.717 122.748C279.478 123.414 278.547 124.344 277.837 125.584C277.157 126.77 276.806 128.116 276.82 129.484C276.82 130.768 277.13 132.053 277.837 133.293C278.473 134.505 279.462 135.494 280.674 136.129V136.129ZM278.948 126.25C279.508 125.246 280.336 124.417 281.34 123.856C282.356 123.324 283.42 123.016 284.484 123.016H284.526C285.59 123.016 286.654 123.324 287.674 123.856C288.677 124.418 289.505 125.246 290.066 126.25C290.643 127.268 290.907 128.332 290.907 129.484C290.913 130.602 290.622 131.702 290.066 132.672C289.521 133.661 288.707 134.475 287.718 135.02C286.747 135.576 285.647 135.867 284.528 135.862H284.485C283.367 135.866 282.267 135.575 281.296 135.02C280.308 134.474 279.496 133.66 278.951 132.672C278.373 131.654 278.063 130.592 278.063 129.484C278.059 128.332 278.369 127.27 278.948 126.25V126.25Z" fill="#0A1627"/>
<path fill-rule="evenodd" clip-rule="evenodd" d="M282.444 130.192H283.241C283.73 130.192 284.083 130.281 284.304 130.502C284.394 130.546 284.44 130.591 284.482 130.634C284.836 130.944 285.236 131.566 285.724 132.407L286.478 133.736H288.073L287.099 132.097C286.61 131.344 286.168 130.768 285.858 130.458C285.652 130.266 285.411 130.116 285.148 130.016C285.858 129.971 286.432 129.706 286.876 129.262C287.319 128.818 287.543 128.288 287.543 127.666C287.543 127.224 287.408 126.824 287.143 126.47C286.895 126.086 286.518 125.803 286.079 125.672C285.725 125.54 285.195 125.45 284.484 125.45C284.352 125.45 284.174 125.406 283.998 125.406H281.118V133.734H282.446V130.192H282.444V130.192ZM282.444 126.558H284.482C284.882 126.604 285.146 126.648 285.324 126.692C285.565 126.76 285.771 126.919 285.898 127.134C286.031 127.31 286.076 127.534 286.076 127.8C286.081 127.968 286.048 128.135 285.979 128.288C285.909 128.441 285.806 128.577 285.677 128.684C285.455 128.906 285.055 128.994 284.481 129.04H282.443V126.558H282.444V126.558ZM83.5019 127.49H95.4632L83.5019 107.555L73.4008 90.7674L30.4766 116.548L37.0324 127.49H83.5019V127.49ZM194.779 127.49H253.209L216.838 66.8906L176.617 0L160.048 9.96742L133.736 25.7809L160.048 69.5926L194.779 127.49V127.49ZM174.359 147.469C170.238 144.812 165.408 143.261 160.181 143.261H160.048C145.609 143.349 133.869 155.132 133.869 169.574C133.869 184.016 145.609 195.798 160.048 195.888H160.181C165.408 195.888 170.238 194.338 174.359 191.68V194.426H186.451V127.491H174.359V147.469ZM174.359 172.321C173.075 178.967 167.182 184.059 160.181 184.059H160.048C152.119 183.971 145.697 177.503 145.697 169.574C145.697 161.646 152.119 155.178 160.048 155.132H160.181C167.182 155.132 173.073 160.184 174.359 166.828V172.321ZM231.148 147.469C226.933 144.718 222.007 143.255 216.973 143.261H216.838C202.398 143.349 190.66 155.132 190.66 169.574C190.66 184.016 202.398 195.798 216.838 195.888H216.973C222.201 195.888 227.073 194.338 231.148 191.68V194.426H243.243V144.589H231.148V147.469ZM231.148 172.321C229.864 178.967 223.971 184.059 216.973 184.059H216.838C208.911 183.971 202.488 177.503 202.488 169.574C202.488 161.646 208.911 155.178 216.838 155.132H216.973C223.971 155.132 229.863 160.184 231.148 166.828V172.321ZM286.256 166.296C285.814 166.072 285.192 165.852 284.482 165.586C281.78 164.656 277.395 163.504 271.281 162.176C265.921 160.978 263.219 159.43 263.219 157.48C263.219 156.106 263.705 154.999 264.636 154.202C265.877 153.139 268.09 152.607 271.281 152.607C274.515 152.607 276.863 153.316 278.236 154.689C279.078 155.53 279.697 157.035 280.096 159.162H292.944C292.944 152.873 290.374 148.355 285.324 145.609C285.058 145.435 284.776 145.287 284.482 145.167C280.981 143.527 276.331 142.685 270.529 142.685C263.484 142.685 258.169 144.546 254.627 148.311C251.793 151.323 250.419 154.999 250.419 159.34C250.419 164.747 253.076 168.644 258.481 171.169C260.519 172.143 265.479 173.517 273.366 175.201C278.638 176.353 281.292 177.993 281.292 180.075C281.292 181.316 280.764 182.378 279.612 183.352C278.148 184.592 275.933 185.214 272.966 185.214C269.023 185.214 266.233 184.55 264.595 183.266C262.953 182.026 262.111 180.21 262.111 177.906H248.646C248.646 184.02 251.216 188.582 256.398 191.592C260.519 193.94 265.923 195.137 272.614 195.137C277.086 195.137 281.072 194.384 284.484 192.923C285.193 192.613 285.815 192.302 286.479 191.948C291.751 189.025 294.409 184.374 294.409 177.996C294.407 172.763 291.702 168.864 286.256 166.296V166.296ZM40.4881 147.469C36.2537 144.723 31.3153 143.262 26.2687 143.261H26.135C11.7393 143.349 0 155.132 0 169.574C0 184.016 11.7393 195.798 26.135 195.888H26.2687C31.4964 195.888 36.3683 194.338 40.4881 191.68V194.426H52.5815V144.589H40.4881V147.469V147.469ZM40.4881 172.321C39.204 178.967 33.3108 184.059 26.2687 184.059H26.135C18.2511 183.971 11.8275 177.503 11.8275 169.574C11.8275 161.646 18.2511 155.178 26.135 155.132H26.2687C33.3123 155.132 39.204 160.184 40.4881 166.828V172.321ZM115.972 139.319H129.13V127.756H115.972V139.319ZM115.972 194.425H129.13V143.261H115.972V194.425ZM97.8551 147.469C93.6202 144.723 88.6812 143.262 83.6341 143.261H83.5019C69.0607 143.349 57.3213 155.132 57.3213 169.574C57.3213 184.016 69.0591 195.798 83.5019 195.888H83.6341C88.6813 195.888 93.6204 194.426 97.8551 191.68V194.426H109.948V127.491H97.8551V147.469ZM97.8551 172.321C96.571 178.967 90.6777 184.059 83.6341 184.059H83.5019C75.5724 183.971 69.1488 177.503 69.1488 169.574C69.1488 161.646 75.5724 155.178 83.5019 155.132H83.6341C90.6777 155.132 96.5694 160.184 97.8551 166.828V172.321ZM174.312 127.49L160.048 103.659L125.01 45.3617L83.5019 70.3463L82.0841 71.1866L83.5019 73.5345L115.927 127.49H174.312Z" fill="#0A1627"/>
</svg>
