<svg width="255" height="238" viewBox="0 0 255 238" fill="none" xmlns="http://www.w3.org/2000/svg">
<path d="M138.088 16.1632C137.99 15.6366 137.923 15.1046 137.887 14.5701C137.366 7.06777 143.014 0.562117 150.515 0.0335721C158.025 -0.489677 164.529 5.16544 165.053 12.6678C165.577 20.1702 159.927 26.6758 152.426 27.2044C151.952 27.2404 151.481 27.2467 151.022 27.2287C150.718 27.3071 150.535 27.3442 150.274 27.5751C149.502 28.7784 152.237 28.5538 150.378 33.8128C150.378 33.8128 150.365 34.3901 150.158 34.9673C150.012 36.9862 149.236 42.9686 149.124 46.1547C149.52 46.6165 149.631 46.841 149.587 47.9606C149.412 49.4742 149.064 53.1836 148.506 55.5604C148.032 57.5973 147.201 57.986 146.53 58.4849C145.588 62.7048 145.339 66.2002 142.921 71.3257C142.701 75.2109 142.428 76.269 141.614 78.1661C141.523 83.8869 141.918 84.7385 138.058 93.7968C137.061 98.0336 138.009 100.964 139.061 105.367C140.137 109.89 143.122 111.781 143.566 116.414C144.611 127.325 144.35 134.753 142.009 143.308L144.052 148.147C146.588 149.31 152.879 152.49 149.39 157.523C154.304 160.105 161.726 162.848 167.848 168.084C170.311 170.135 172.912 172.371 175.247 174.996C179.691 175.688 179.217 176.041 182.511 178.065C192.197 184.004 207.73 195.786 216.735 204.127C218.286 205.033 218.918 205.685 220.17 206.342C220.366 206.717 220.419 206.804 220.375 206.905C219.945 207.994 219.961 208.026 219.572 208.894C220.059 209.431 220.964 209.933 221.505 210.403C222.012 210.561 222.012 210.318 222.88 210.105C224.011 211.163 225.411 212.016 225.913 211.966C227.446 211.578 227.184 211.894 228.479 210.445C228.945 209.965 229.726 210.452 229.726 210.452C230.212 209.881 231.258 208.743 232.652 207.921C233.764 207.266 235.886 207.192 235.886 207.192C236.597 207.199 236.464 207.928 236.402 208.165C235.599 208.579 233.898 209.034 232.943 209.739C230.863 211.89 229.233 214.792 229.233 214.792C233.422 214.22 235.994 215.259 239.484 214.859C241.388 214.749 242.792 214.872 244.791 213.425C244.791 213.425 246.713 212.057 248.434 211.332C250.105 210.603 251.692 210.992 253.163 212.061C254.202 213.233 254.828 213.239 253.248 214.895C252.677 215.538 251.85 216.256 250.799 217.296C248.951 219.122 246.463 221.556 243.887 223.571C241.278 225.608 238.317 227.437 236.469 228.276C231.806 231.626 232.907 230.75 229.241 234.071C228.778 234.485 227.55 235.225 226.955 235.621C225.509 236.57 225.058 235.778 224.115 234.04C224.115 234.04 223.684 233.391 222.972 232.003C222.195 230.49 221.611 228.759 221.848 228.788C220.979 228.677 217.068 224.093 217.059 223.11C216.232 222.921 212.705 219.506 212.578 218.853L209.454 216.348C205.879 217.091 205.059 214.871 195.617 208.171C194.54 208.152 192.876 207.571 190.491 205.802C186.231 202.389 176.009 194.668 174.276 193.786C172.415 192.838 170.192 191.945 168.828 190.819C166.785 190.443 165.667 190.229 164.645 189.944C163.601 189.658 162.651 189.289 160.007 188.935C155.703 188.4 151.24 186.618 146.99 184.492C144.979 183.538 143.227 183.052 141.495 182.307C137.61 180.667 134.279 179.189 131.697 178.593C130.712 178.495 126.031 177.091 123.575 175.658C122.724 175.219 122.231 174.8 121.672 174.672C120.383 174.375 119.556 174.884 118.973 175.08C115.824 176.721 112.875 178.138 110.151 179.604C107.615 180.96 105.281 182.369 102.806 183.793C100.575 185.083 97.9965 186.297 95.3464 187.563C95.3464 187.563 87.7889 191.351 83.6612 192.823C80.08 195.747 72.7598 200.804 68.2921 203.309C66.0794 204.361 61.7811 207.084 59.7983 207.693C58.6671 208.604 54.6368 211.48 51.4814 213.852C49.0431 215.676 47.2011 217.214 47.2011 217.214C45.785 218.484 45.8814 219.086 43.1889 217.942C42.4411 218.557 41.8638 218.939 41.3829 219.292C39.4382 220.703 39.273 220.363 38.5622 220.326C37.2064 221.499 37.0359 220.892 35.8507 222.243C35.0721 223.448 35.8687 223.16 34.2269 223.745C33.8805 223.878 33.7164 224.297 33.4494 224.529C32.1297 225.615 32.1244 228.687 28.9626 228.906C27.1323 230.212 27.6005 231.789 26.2023 231.721C26.2881 233.075 23.728 235.053 23.2662 235.046C19.2349 236.437 18.9552 233.474 14.1157 235.685C13.4897 235.972 12.5714 236.763 11.3618 236.992C9.23382 237.394 6.66206 236.973 5.09337 235.758C2.62436 233.855 0.351296 230.183 0.351296 230.183C-0.433577 228.328 0.0229418 227.155 2.47289 225.402C3.49397 224.753 3.68251 224.267 5.39736 224.149C6.24897 223.827 6.017 224.32 7.53802 223.774C8.41928 223.458 8.41929 223.683 10.1945 223.532C10.6013 223.257 11.1732 223.16 11.939 222.911C13.3435 222.448 14.712 221.932 14.712 221.932C14.712 221.932 15.0701 221.573 16.4205 221.702C17.5634 221.233 18.737 220.538 19.3387 220.326C19.1861 218.515 19.381 218.6 20.2199 217.871C21.2654 216.97 21.4539 217.117 22.2324 217.675C22.5608 217.486 22.7186 217.421 22.6826 217.146C22.5544 216.203 21.7462 215.759 21.9899 213.681C21.6308 212.849 21.1022 211.821 21.2177 211.201C21.3882 210.531 21.5524 210.208 21.9591 209.995C22.3913 209.765 22.5311 210.076 22.762 210.335C23.1751 210.816 23.5098 212.24 23.5098 212.24C23.656 213.845 24.1538 215.925 25.7405 214.751C26.6769 213.802 26.859 211.274 28.7677 211.815L30.1299 212.999C31.2855 211.912 31.3405 211.912 32.0333 211.475C32.0333 211.475 30.9508 210.381 31.8998 209.529C32.5502 208.951 33.334 208.537 34.7268 206.993C38.5506 202.768 40.5144 200.901 44.6495 197.495C52.8997 190.71 62.2864 185.951 68.2508 183.585C70.1955 181.116 72.0872 179.475 76.4035 179.061C81.5343 170.397 91.3595 162.659 93.6156 161.425C95.4512 158.098 96.2478 158.452 98.649 157.784C100.551 156.258 100.983 156.258 101.835 154.665C102.662 151.377 99.9264 142.591 106.911 142.148C108.395 140.051 108.024 140.554 109.677 138.573C108.559 135.812 108.097 133.503 107.793 131.514C107.738 131.283 105.021 129.368 105.792 126.868C104.638 125.495 102.479 122.288 101.804 120.786C101.495 120.793 101.239 120.676 100.899 120.63C100.546 120.574 100.108 120.594 99.616 120.551C98.5282 123.358 97.343 123.567 95.4089 124.187C91.9559 131.546 90.7399 134.661 80.9698 140.745C77.0909 145.088 75.8506 149.926 75.8686 149.854C75.2002 151.289 75.4364 153.296 75.7892 154.372C75.2786 155.965 75.4121 156.123 75.4121 156.123C75.625 156.724 76.1789 157.521 76.859 157.69C78.0326 158.001 79.2062 157.951 79.1384 159.258C78.9806 160.893 76.8346 160.625 75.8188 160.443C71.9093 159.823 73.1443 157.275 70.6446 158.126C68.7295 159.379 68.0125 163.075 64.8867 162.596C64.4736 162.322 64.6007 161.514 64.8804 160.93C65.3189 160.019 66.0963 159.264 65.6345 158.922C63.5964 159.575 61.5616 160.238 59.5303 160.911C57.6153 161.434 55.517 160.479 57.4024 159.22C58.2783 158.88 59.5303 158.453 61.0746 157.464C61.0746 157.464 61.8701 156.381 60.3448 156.922C58.6787 157.518 56.2224 157.888 54.4599 157.695C54.4599 157.695 50.8056 157.215 50.3374 156.928C49.8629 156.641 49.4318 155.512 50.5747 155.518C52.0216 155.531 55.6451 155.104 58.4542 154.356C59.8099 153.827 62.3881 152.302 63.8349 151.584C63.8349 151.584 65.4036 149.298 66.2669 148.848C67.7074 147.189 68.9234 146.21 70.1997 144.513C71.4464 141.94 72.7355 137.868 76.8632 131.563C78.7719 128.656 81.1435 125.271 84.1283 122.244C84.1283 122.244 84.9005 117.399 88.7856 113.951C89.6436 111.933 90.9443 109.556 92.227 107.355C92.7259 106.509 93.1994 105.774 93.6739 104.971C94.8782 103.081 96.1429 99.561 100.836 99.007C100.836 99.007 102.842 97.5242 103.615 96.4702C104.819 95.4428 104.545 93.8445 105.523 92.7185C104.028 91.26 100.204 88.5177 99.8321 84.7056C99.437 80.6626 100.878 77.3367 103.322 74.8751C106.034 72.1635 108.892 70.8078 112.363 71.0143C116.697 71.6583 117.518 73.0935 118.898 74.516C120.223 75.8655 120.715 74.9969 121.275 76.5773C124.911 77.5443 124.71 77.1185 124.679 79.7941C125.238 80.5472 126.175 81.2473 126.162 82.8096C127.384 80.2739 127.627 79.8068 130.892 77.0158C131.665 74.748 132.189 72.5173 132.867 70.2495C133.503 68.1523 134.295 65.9936 134.908 64.3699C134.257 59.7856 135.593 59.0262 137.376 55.0075C137.06 54.4546 137.128 54.2968 137.261 53.3901C137.954 50.7336 139.037 47.2192 139.681 44.9271C139.681 44.9271 139.893 44.0151 140.836 43.9483C141.652 41.0482 142.874 35.6495 143.08 34.5489C143.918 31.5154 143.377 30.5419 142.733 28.8334C142.527 28.2742 142.623 27.4777 142.266 26.857C141.25 25.0881 140.157 22.7896 139.416 21.1478C138.935 20.1024 138.174 16.1621 138.174 16.1621C137.522 14.1507 138.088 16.1632 138.088 16.1632Z" fill="#0A1627"/>
</svg>
