<svg width="419" height="194" viewBox="0 0 419 194" fill="none" xmlns="http://www.w3.org/2000/svg">
<path fill-rule="evenodd" clip-rule="evenodd" d="M173.233 88.6655L125.145 90.378L170.805 92.9154L173.233 88.6655V88.6655ZM167.481 98.7703L119.279 100.485L165.109 103.031L167.481 98.7703V98.7703ZM161.729 108.96L113.587 110.65L159.361 113.194L161.729 108.96ZM156.095 119.099L107.893 120.815L153.613 123.355L156.095 119.099ZM215.018 37.6607L153.642 39.8449L215.192 43.2653L215.018 37.6607ZM214.629 27.6319L159.493 29.5657L214.803 32.7379L214.629 27.6319V27.6319ZM214.236 17.9585L165.111 19.5748L214.473 22.3156L214.236 17.9585ZM213.905 8.02804L170.845 9.46775L214.075 12.0208L213.905 8.02804V8.02804ZM213.625 6.10352e-05H176.175L213.681 1.98973L213.625 6.10352e-05V6.10352e-05ZM150.287 129.232L102.202 130.974H149.305L150.287 129.232Z" fill="#0A1627"/>
<path fill-rule="evenodd" clip-rule="evenodd" d="M313.248 0.324158H243.949L241.984 3.80272L276.662 5.6426C277.069 5.6426 277.069 6.21938 276.488 6.21938L239.963 7.44002L236.44 13.6058L270.881 15.6401C271.344 15.6983 271.23 16.3332 270.825 16.3332L234.24 17.5359L230.835 23.4401L265.221 25.3493C265.972 25.4074 265.972 26.0445 265.221 26.0445L228.696 27.3255L225.228 33.5002L259.5 35.4653C260.251 35.5234 260.195 36.2164 259.5 36.2164L222.975 37.5176L219.447 43.6162L253.774 45.5232C254.293 45.5813 254.356 46.2184 253.66 46.2184L148.416 49.7439L248.286 55.2927C248.919 55.2927 248.863 56.1019 248.168 56.1019L142.753 59.86L242.623 65.4065C243.086 65.4065 243.2 66.1576 242.505 66.1576L136.916 69.9715L236.786 75.5202C237.193 75.5784 237.593 76.3295 236.73 76.3876L131.309 80.1389L231.177 85.6854C231.466 85.7435 231.754 86.4947 231.063 86.4947L178.006 88.386L178.18 93.1746L225.456 95.8014C225.801 95.8596 225.975 96.5526 225.338 96.5526L178.355 98.2226L178.585 103.579L219.621 105.859C220.024 105.917 220.198 106.727 219.503 106.727L178.815 108.155L178.992 114.033L213.959 115.975C214.361 116.031 214.477 116.782 213.784 116.782L179.166 118.019L179.397 124.484L208.294 126.089C208.701 126.147 208.701 126.842 208.122 126.842L179.513 127.878L179.629 130.656H272.911C297.646 130.656 319.836 112.624 323.999 98.2896C328.163 83.9573 328.163 71.0111 308.28 64.539C319.38 61.9949 338.68 49.4779 342.496 32.1723C345.956 16.4494 340.18 0.382283 313.248 0.324158ZM266.327 100.702H237.663L253.844 72.0349H275.113C297.075 72.0349 286.439 100.702 266.327 100.702V100.702ZM303.429 39.2032C302.503 42.6706 295.564 51.4564 286.785 51.4564H265.516L279.153 27.4149H290.02C303.887 27.8777 304.35 35.738 303.429 39.2032V39.2032ZM418.251 172.196C418.251 161.087 409.016 151.783 397.907 151.783C386.51 151.783 377.205 161.235 377.205 172.846C377.194 175.578 377.723 178.284 378.763 180.81C379.803 183.336 381.333 185.63 383.265 187.562C385.196 189.493 387.491 191.023 390.017 192.062C392.543 193.102 395.249 193.631 397.981 193.619C406.416 193.619 414.423 187.849 416.804 179.987H406.272C404.18 183.304 401.444 184.818 397.688 184.818C392.928 184.818 388.676 181.572 387.304 176.955H417.741C418.105 174.722 418.251 173.638 418.251 172.196ZM387.017 169.415C388.388 164.005 392.716 160.542 398.052 160.542C403.393 160.542 407.576 163.933 408.872 169.415H387.017ZM281.509 153.708V156.947C278.482 153.701 274.096 151.854 269.406 151.854C259.019 151.854 250.164 160.725 250.164 172.267C250.164 183.157 257.997 192.924 269.611 192.924C274.733 192.924 278.627 191.741 282.305 187.559V192.68H291.109V153.708H281.509V153.708ZM270.758 184.664C267.55 184.664 264.474 183.389 262.205 181.121C259.937 178.853 258.663 175.776 258.663 172.568C258.663 169.36 259.937 166.283 262.205 164.015C264.474 161.747 267.55 160.472 270.758 160.472C273.966 160.472 277.043 161.747 279.311 164.015C281.579 166.283 282.854 169.36 282.854 172.568C282.854 175.776 281.579 178.853 279.311 181.121C277.043 183.389 273.966 184.664 270.758 184.664V184.664ZM19.188 151.78C15.2221 151.78 12.1929 153.151 8.87303 156.542V152.719H0V192.68H9.59512V173.852C9.59512 168.733 10.0266 160.58 17.0955 160.58C23.7307 160.58 24.4528 168.225 24.4528 173.13V192.678H34.0457V171.255C34.0457 165.628 33.6142 162.961 32.0985 159.786C29.8629 155.026 24.5981 151.78 19.188 151.78V151.78ZM78.7976 172.196C78.7976 161.087 69.5646 151.783 58.456 151.783C47.059 151.783 37.7545 161.235 37.7545 172.846C37.7433 175.577 38.2729 178.284 39.3129 180.809C40.3529 183.334 41.8826 185.629 43.8137 187.56C45.7449 189.491 48.0394 191.021 50.5648 192.061C53.0902 193.101 55.7965 193.631 58.5276 193.619C66.9669 193.619 74.9725 187.849 77.3534 179.987H66.8238C64.7313 183.304 61.9905 184.818 58.2392 184.818C53.4796 184.818 49.2231 181.572 47.8527 176.955H78.2901C78.6545 174.722 78.7976 173.638 78.7976 172.196V172.196ZM47.5665 169.415C48.9369 164.005 53.265 160.542 58.6036 160.542C63.9421 160.542 68.1249 163.933 69.4238 169.415H47.5665ZM236.641 192.647H246.234V139.342H236.641V192.647ZM316.418 151.78C312.45 151.78 309.418 153.151 306.1 156.542V152.719H297.227V192.68H306.825V173.852C306.825 168.733 307.256 160.58 314.325 160.58C320.958 160.58 321.682 168.225 321.682 173.13V192.678H331.275V171.255C331.275 165.628 330.844 162.961 329.328 159.786C327.093 155.026 321.828 151.78 316.418 151.78V151.78ZM355.223 160.582C359.62 160.582 362.144 162.026 364.527 166.064H375.343C372.388 157.481 364.816 151.78 355.581 151.78C343.895 151.78 334.517 161.085 334.517 172.556C334.517 184.096 343.967 193.617 355.581 193.617C358.543 193.602 361.47 192.972 364.176 191.767C366.882 190.563 369.309 188.81 371.303 186.62C373.324 184.384 374.047 183.085 375.343 179.553H364.527C362.287 183.014 359.406 184.816 355.8 184.816C349.088 184.816 344.114 179.622 344.114 172.697C344.114 165.704 348.874 160.582 355.223 160.582V160.582ZM115.466 177.101L108.672 152.722H100.952L94.0845 177.101L85.9626 152.722H77.4987L90.8407 192.68H96.9863L104.777 166.788L112.349 192.68H118.799L131.593 152.722H123.661L115.466 177.101V177.101ZM166.864 151.823C162.176 151.823 157.79 153.67 154.76 156.913V139.344H145.165V192.647H153.965V187.527C157.644 191.71 161.539 192.891 166.66 192.891C178.274 192.891 186.108 183.126 186.108 172.234C186.11 160.694 177.253 151.823 166.864 151.823V151.823ZM165.511 184.664C162.303 184.664 159.227 183.389 156.958 181.121C154.69 178.853 153.416 175.776 153.416 172.568C153.416 169.36 154.69 166.283 156.958 164.015C159.227 161.747 162.303 160.472 165.511 160.472C168.719 160.472 171.796 161.747 174.064 164.015C176.333 166.283 177.607 169.36 177.607 172.568C177.607 175.776 176.333 178.853 174.064 181.121C171.796 183.389 168.719 184.664 165.511 184.664V184.664ZM220.636 153.708V156.947C217.607 153.701 213.223 151.854 208.533 151.854C198.146 151.854 189.287 160.725 189.287 172.267C189.287 183.157 197.123 192.924 208.734 192.924C213.856 192.924 217.75 191.741 221.43 187.559V192.68H230.229V153.708H220.636V153.708ZM209.888 184.664C206.68 184.664 203.603 183.389 201.335 181.121C199.066 178.853 197.792 175.776 197.792 172.568C197.792 169.36 199.066 166.283 201.335 164.015C203.603 161.747 206.68 160.472 209.888 160.472C213.096 160.472 216.172 161.747 218.441 164.015C220.709 166.283 221.983 169.36 221.983 172.568C221.983 175.776 220.709 178.853 218.441 181.121C216.172 183.389 213.096 184.664 209.888 184.664V184.664Z" fill="#0A1627"/>
</svg>
