<svg width="370" height="133" viewBox="0 0 370 133" fill="none" xmlns="http://www.w3.org/2000/svg">
<path fill-rule="evenodd" clip-rule="evenodd" d="M47.2928 5.89228C23.2681 34.1064 0.232859 69.0944 0.00187532 95.2467C-0.0880869 105.087 3.0533 113.677 10.5882 120.183C21.4323 129.554 33.3803 132.858 45.2699 132.878C62.6448 132.902 79.8981 125.892 93.407 120.487C116.158 111.389 367.646 2.17708 367.646 2.17708C370.073 0.961377 369.618 -0.553385 366.581 0.202785C365.356 0.509143 92.7967 74.373 92.7967 74.373C87.634 75.8331 82.2992 76.5969 76.9342 76.6439C55.9876 76.7679 37.3484 65.1409 37.4991 40.6396C37.5575 31.0525 40.4922 19.4912 47.2928 5.89228V5.89228Z" fill="#0A1627"/>
</svg>
