<svg width="373" height="231" viewBox="0 0 373 231" fill="none" xmlns="http://www.w3.org/2000/svg">
<path d="M201.03 0.630325C199.81 0.813877 198.634 5.30642 196.282 7.6523C194.551 9.33785 192.405 9.23935 191.259 11.3256C190.822 12.1023 190.961 13.4364 190.469 14.7168C189.504 17.2731 186.117 17.4992 186.117 20.2883C186.108 23.299 188.942 23.8743 191.4 26.0097C193.316 27.7244 193.499 28.9107 195.83 29.7457C197.811 30.4194 200.765 28.2123 203.42 29.007C205.603 29.6561 207.691 30.124 208.186 32.3624C208.618 34.4307 208.154 37.6317 205.511 37.2601C204.622 37.1594 200.75 35.8611 196.002 36.3625C190.267 37.0161 183.733 38.8874 183.086 45.2782C182.737 48.8462 187.151 53.059 191.42 52.2039C194.37 51.6219 192.976 48.1434 194.581 46.4534C196.682 44.2866 208.618 54.0103 219.712 54.0103C224.381 54.0103 227.859 52.8307 231.304 49.2156C231.631 48.9403 232.018 48.3493 232.52 48.3113C232.992 48.3516 233.807 48.8127 234.078 49.0097C243.009 56.1883 249.767 70.5927 282.6 70.7605C287.218 70.7896 292.474 72.9923 296.767 76.9073C300.6 80.4507 302.843 85.964 305.023 91.5556C308.311 99.9408 314.196 108.104 323.123 117.181C323.613 117.667 330.962 123.384 331.548 123.807C331.64 123.87 332.182 125.159 331.994 125.88C331.772 131.328 330.984 147.158 342.787 147.87C345.666 148.018 344.914 145.985 344.914 144.595C344.91 141.838 344.404 139.096 345.859 136.271C347.851 132.394 341.644 130.605 341.823 122.207C341.957 115.95 336.69 117.016 334.031 112.248C332.493 109.483 331.127 108.017 331.224 104.642C331.828 85.6238 327.177 73.1266 324.86 70.0577C323.047 67.7409 321.551 66.8231 323.215 65.7487C333.057 59.2416 335.293 53.1911 335.293 53.1911C340.531 40.8774 345.241 29.6315 351.743 24.6823C353.051 23.6594 356.404 21.1501 358.459 20.1719C364.527 17.3134 367.715 15.5808 369.476 13.8684C372.254 11.1577 374.466 5.49445 371.793 2.06292C368.471 -2.17444 362.727 1.1877 360.191 2.69193C342.08 13.4387 339.416 32.3982 333.14 43.2815C328.137 51.9823 320 58.3708 312.725 58.8946C307.275 59.2998 301.394 58.1962 295.541 55.6265C281.304 49.3835 273.515 41.3251 271.675 39.9015C267.849 36.9512 238.154 7.7978 214.1 6.61143C214.1 6.61143 211.114 0.632565 210.362 0.534074C208.604 0.307992 206.802 4.10214 205.513 4.54535C204.295 4.94379 202.254 0.433342 201.03 0.630325V0.630325ZM95.1201 174.602C92.8548 174.546 90.932 172.688 90.932 170.391L90.9365 95.3475H66.204V178.067C66.204 182.123 69.4878 185.429 73.5215 185.429H116.75C120.806 185.429 124.052 182.121 124.052 178.067V95.3475H99.3396L99.3194 170.391C99.3217 172.688 97.3944 174.546 95.1201 174.602V174.602ZM177.922 95.3475H140.495C139.437 95.3493 138.39 95.5597 137.413 95.9666C136.436 96.3736 135.549 96.9692 134.802 97.7193C134.055 98.4694 133.464 99.3593 133.062 100.338C132.659 101.317 132.454 102.366 132.457 103.424V185.429H157.214V110.211C157.217 109.665 157.328 109.124 157.54 108.621C157.752 108.118 158.061 107.661 158.449 107.277C158.838 106.893 159.298 106.59 159.804 106.384C160.31 106.179 160.852 106.075 161.398 106.079C163.708 106.079 165.561 107.86 165.615 110.146V185.431H190.265V110.144C190.301 107.858 192.15 106.076 194.457 106.076C196.743 106.076 198.632 107.903 198.65 110.209V185.429H223.409V103.424C223.412 102.365 223.206 101.316 222.802 100.338C222.399 99.3587 221.807 98.4689 221.06 97.7189C220.313 96.9688 219.426 96.3734 218.448 95.9665C217.471 95.5596 216.423 95.3493 215.364 95.3475H177.922ZM49.7067 162.794H24.7213V185.429H0V95.3475H49.8634C54.3269 95.3475 57.8121 98.976 57.8121 103.46V154.671C57.8154 155.737 57.608 156.793 57.2021 157.779C56.7961 158.765 56.1995 159.661 55.4464 160.416C54.6934 161.17 53.7987 161.769 52.8137 162.177C51.8287 162.585 50.7729 162.795 49.7067 162.794ZM33.1087 110.365C33.1164 109.809 33.0142 109.256 32.808 108.739C32.6018 108.222 32.2956 107.751 31.9069 107.353C31.5183 106.954 31.0548 106.636 30.5432 106.417C30.0315 106.198 29.4816 106.082 28.9251 106.076H24.7213V151.64H28.9251C31.1031 151.64 33.1289 149.907 33.1087 147.407V110.365ZM319.371 174.752C319.371 180.871 314.465 185.848 308.392 185.848C306.936 185.849 305.494 185.563 304.149 185.006C302.804 184.448 301.582 183.631 300.554 182.599C299.526 181.568 298.713 180.344 298.16 178.997C297.606 177.65 297.325 176.208 297.332 174.752C297.332 168.721 302.263 163.674 308.213 163.674C314.458 163.667 319.371 168.565 319.371 174.752ZM308.233 165.285C303.261 165.285 299.091 169.576 299.091 174.781C299.091 180.003 303.261 184.258 308.385 184.258C313.468 184.258 317.592 180.003 317.592 174.781C317.592 169.567 313.468 165.285 308.385 165.285H308.233V165.285Z" fill="#0A1627"/>
<path d="M313.578 181.169H310.63L306.836 176.117V181.169H304.427V168.399H306.955C310.404 168.399 312.231 169.697 312.231 172.189C312.231 173.85 311.152 175.318 309.647 175.766L309.468 175.828L313.578 181.169ZM307.25 174.044C308.965 174.044 309.878 173.438 309.878 172.22C309.878 171.137 308.996 170.577 307.322 170.577H306.829V174.049L307.25 174.044V174.044ZM264.912 185.429V162.812H256.502V185.429H231.799V103.424C231.799 98.9469 235.403 95.3475 239.839 95.3475H281.577C282.636 95.3484 283.685 95.5581 284.663 95.9647C285.64 96.3712 286.528 96.9666 287.276 97.7168C288.023 98.4669 288.616 99.3571 289.019 100.336C289.422 101.316 289.627 102.365 289.625 103.424V185.429H264.912ZM264.912 151.658V110.177C264.852 107.885 263.001 106.121 260.695 106.121C259.595 106.119 258.538 106.551 257.754 107.322C256.969 108.093 256.519 109.142 256.502 110.242V151.658H264.912V151.658ZM0.693848 230.858V206.11H3.45384V208.436C4.10299 207.527 4.83943 206.84 5.66094 206.385C6.47797 205.935 7.47183 205.7 8.6403 205.7C10.1691 205.7 11.5144 206.101 12.6829 206.878C13.8559 207.67 14.7356 208.778 15.3287 210.208C15.9286 211.641 16.2241 213.21 16.2241 214.918C16.2241 216.747 15.8973 218.399 15.237 219.865C14.5811 221.329 13.6275 222.45 12.374 223.234C11.1947 223.99 9.82418 224.395 8.42317 224.4C7.40916 224.4 6.50707 224.185 5.70347 223.762C4.93734 223.368 4.26305 222.816 3.72469 222.144V230.854L0.693848 230.858V230.858ZM3.43817 215.155C3.43817 217.454 3.90377 219.16 4.83496 220.261C5.76615 221.36 6.90103 221.911 8.22171 221.911C9.56701 221.911 10.7243 221.342 11.6846 220.194C12.6449 219.057 13.1284 217.291 13.1284 214.9C13.1284 212.617 12.6561 210.916 11.7204 209.776C10.7825 208.644 9.66102 208.075 8.36273 208.075C7.06891 208.075 5.92507 208.68 4.92897 209.886C3.93063 211.099 3.43817 212.859 3.43817 215.155V215.155ZM48.8538 224.006V221.376C47.4548 223.4 45.5655 224.407 43.1727 224.407C42.1206 224.407 41.1312 224.205 40.2157 223.8C39.3024 223.397 38.6242 222.885 38.1809 222.276C37.7082 221.603 37.3881 220.835 37.243 220.026C37.1222 219.429 37.0595 218.486 37.0595 217.19V206.108H40.0903V216.031C40.0903 217.618 40.1552 218.683 40.2761 219.234C40.4709 220.033 40.876 220.655 41.4894 221.114C42.1116 221.569 42.8749 221.797 43.7837 221.797C44.6926 221.797 45.5432 221.564 46.3445 221.098C47.1436 220.635 47.7055 219.997 48.0345 219.196C48.3681 218.39 48.536 217.224 48.536 215.699V206.117H51.5668V224.006H48.8538ZM73.5639 224.006V206.117H76.2724V208.621C76.8349 207.745 77.6054 207.021 78.5153 206.515C79.4488 205.98 80.512 205.709 81.7006 205.709C83.0236 205.709 84.1114 205.987 84.9553 206.537C85.8059 207.09 86.4058 207.854 86.7505 208.843C88.172 206.755 90.012 205.709 92.2773 205.709C94.0546 205.709 95.4178 206.206 96.3736 207.187C97.3272 208.167 97.8062 209.682 97.8062 211.724V224.006H94.7933V212.736C94.7933 211.52 94.6948 210.645 94.5 210.112C94.2952 209.577 93.919 209.124 93.43 208.825C92.8823 208.49 92.2499 208.319 91.6079 208.333C90.3477 208.333 89.3068 208.753 88.4741 209.591C87.6459 210.426 87.2251 211.766 87.2251 213.606V224.006H84.1943V212.384C84.1943 211.032 83.948 210.02 83.4511 209.349C82.9564 208.677 82.1506 208.339 81.0246 208.339C80.174 208.339 79.3861 208.565 78.6608 209.02C77.9356 209.468 77.4073 210.123 77.085 210.987C76.7582 211.856 76.5948 213.1 76.5948 214.73V224.011H73.5639V224.006V224.006ZM131.224 221.795C130.098 222.75 129.017 223.422 127.98 223.816C126.91 224.214 125.776 224.414 124.634 224.405C122.666 224.405 121.16 223.926 120.103 222.968C119.051 222.003 118.521 220.776 118.521 219.283C118.521 218.401 118.715 217.604 119.118 216.879C119.492 216.181 120.029 215.584 120.683 215.137C121.332 214.703 122.057 214.367 122.868 214.146C123.755 213.938 124.654 213.786 125.561 213.691C128.009 213.398 129.816 213.053 130.971 212.642C130.982 212.228 130.989 211.963 130.989 211.854C130.989 210.618 130.702 209.747 130.127 209.244C129.357 208.552 128.202 208.214 126.678 208.214C125.252 208.214 124.2 208.46 123.512 208.962C122.834 209.463 122.335 210.347 122.006 211.619L119.044 211.209C119.315 209.949 119.759 208.919 120.374 208.142C120.99 207.357 121.887 206.757 123.054 206.334C124.22 205.913 125.572 205.7 127.114 205.7C128.643 205.7 129.879 205.884 130.834 206.24C131.79 206.602 132.491 207.048 132.945 207.594C133.395 208.14 133.704 208.827 133.888 209.662C133.986 210.177 134.038 211.108 134.038 212.456V216.501C134.038 219.323 134.1 221.11 134.232 221.848C134.36 222.596 134.617 223.314 134.998 223.999H131.828C131.494 223.308 131.289 222.56 131.224 221.795V221.795ZM130.969 215.021C129.865 215.475 128.215 215.854 126.017 216.172C124.77 216.351 123.884 216.552 123.371 216.778C122.881 216.978 122.464 217.324 122.176 217.768C121.896 218.195 121.751 218.672 121.751 219.205C121.751 220.015 122.062 220.689 122.671 221.228C123.277 221.763 124.177 222.03 125.357 222.03C126.523 222.03 127.564 221.781 128.473 221.266C129.345 220.794 130.047 220.06 130.478 219.167C130.807 218.484 130.966 217.47 130.966 216.136L130.969 215.021ZM156.84 224.006V220.548H160.297V224.006H156.84ZM194.493 217.448L197.468 217.842C197.141 219.892 196.311 221.506 194.97 222.663C193.629 223.827 191.979 224.405 190.025 224.405C187.579 224.405 185.607 223.605 184.12 222.007C182.63 220.409 181.882 218.117 181.882 215.124C181.882 213.195 182.209 211.502 182.847 210.052C183.489 208.603 184.465 207.516 185.777 206.793C187.081 206.067 188.551 205.693 190.043 205.705C191.984 205.705 193.58 206.199 194.809 207.182C196.047 208.165 196.837 209.559 197.188 211.37L194.24 211.822C193.956 210.623 193.459 209.718 192.749 209.109C192.038 208.503 191.176 208.201 190.162 208.201C188.631 208.201 187.391 208.747 186.437 209.844C185.484 210.936 185.002 212.668 185.002 215.037C185.002 217.439 185.466 219.187 186.388 220.279C187.31 221.365 188.51 221.911 189.992 221.911C191.178 221.911 192.176 221.544 192.973 220.814C193.77 220.089 194.276 218.965 194.493 217.448V217.448ZM216.177 215.055C216.177 211.742 217.095 209.284 218.944 207.692C220.481 206.372 222.353 205.7 224.567 205.7C227.031 205.7 229.039 206.506 230.599 208.122C232.159 209.734 232.938 211.957 232.938 214.797C232.938 217.103 232.594 218.914 231.902 220.232C231.229 221.537 230.179 222.608 228.889 223.308C227.566 224.038 226.076 224.414 224.564 224.4C222.064 224.4 220.041 223.601 218.492 221.992C216.949 220.391 216.177 218.081 216.177 215.055V215.055ZM219.3 215.055C219.3 217.345 219.799 219.059 220.799 220.201C221.798 221.347 223.06 221.915 224.573 221.915C226.082 221.915 227.331 221.34 228.334 220.196C229.33 219.05 229.829 217.302 229.829 214.954C229.829 212.742 229.33 211.064 228.325 209.922C227.315 208.783 226.069 208.214 224.573 208.214C223.06 208.214 221.802 208.783 220.799 209.917C219.792 211.05 219.3 212.767 219.3 215.055V215.055ZM253.745 224.006V206.117H256.451V208.621C257.013 207.745 257.784 207.021 258.694 206.515C259.625 205.98 260.695 205.709 261.881 205.709C263.204 205.709 264.29 205.987 265.134 206.537C265.987 207.09 266.584 207.854 266.934 208.843C268.355 206.755 270.195 205.709 272.462 205.709C274.238 205.709 275.598 206.206 276.552 207.187C277.512 208.167 277.989 209.682 277.989 211.724V224.006H274.974V212.736C274.974 211.52 274.873 210.645 274.681 210.112C274.479 209.584 274.121 209.15 273.609 208.825C273.061 208.49 272.43 208.319 271.789 208.333C270.531 208.333 269.492 208.753 268.657 209.591C267.831 210.426 267.408 211.766 267.408 213.606V224.006H264.377V212.384C264.377 211.032 264.131 210.02 263.634 209.349C263.139 208.677 262.336 208.339 261.208 208.339C260.355 208.339 259.571 208.565 258.842 209.02C258.121 209.468 257.59 210.123 257.268 210.987C256.941 211.856 256.778 213.1 256.778 214.73V224.011H253.745V224.006V224.006Z" fill="#0A1627"/>
</svg>
