<svg width="220" height="129" viewBox="0 0 220 129" fill="none" xmlns="http://www.w3.org/2000/svg">
<path d="M219.966 20.6197C219.966 20.6197 213.62 15.7077 193.071 8.16045C175.039 1.52421 161.266 0 161.266 0L161.334 39.3537C161.334 55.9872 142.538 73.6497 110.436 73.6497H109.518C77.4201 73.6497 58.6299 55.9872 58.6299 39.3537L58.6926 0C58.6926 0 44.9323 1.52329 26.8935 8.16045C6.34487 15.7077 0 20.6197 0 20.6197C1.52328 52.1817 50.5542 78.1854 109.971 78.1993H109.984C169.405 78.1854 218.448 52.1817 219.966 20.6197" fill="#0A1627"/>
<path d="M0.000119319 107.58C0.000119319 107.58 6.34591 112.492 26.8955 120.039C44.9269 126.675 58.7001 128.199 58.7001 128.199L58.6318 88.8456C58.6318 72.2121 77.4285 54.5496 109.53 54.5496L110.448 54.5496C142.546 54.5496 161.336 72.2121 161.336 88.8456L161.274 128.199C161.274 128.199 175.034 126.676 193.073 120.039C213.621 112.492 219.966 107.58 219.966 107.58C218.443 76.0176 169.412 50.0138 109.996 50L109.982 50C50.5617 50.0138 1.5188 76.0175 0.000119319 107.58" fill="#0A1627"/>
</svg>
