<svg width="100" height="100" viewBox="0 0 100 100" fill="none" xmlns="http://www.w3.org/2000/svg">
<path d="M35.924 89.748C36.672 90.554 36.628 91.83 35.824 92.58L31.48 96.642C30.676 97.392 29.406 97.348 28.658 96.54L3.35996 69.276C2.61196 68.47 2.65796 67.196 3.46196 66.444L7.81196 62.388C8.61596 61.636 9.88596 61.682 10.634 62.49L35.924 89.748ZM68.204 38.448C68.952 39.254 68.906 40.53 68.102 41.28L40.762 66.82C39.958 67.57 38.688 67.526 37.94 66.718L31.414 59.676C30.666 58.87 30.712 57.594 31.516 56.844L58.85 31.304C59.652 30.554 60.922 30.598 61.67 31.406L68.204 38.448V38.448ZM45.226 81.054C45.974 81.86 45.928 83.134 45.124 83.886L40.774 87.946C39.97 88.698 38.7 88.652 37.952 87.844L12.668 60.58C11.92 59.774 11.964 58.498 12.768 57.748L17.11 53.69C17.914 52.94 19.184 52.984 19.932 53.792L45.226 81.054ZM87.352 39.426C88.1 40.232 88.054 41.508 87.248 42.258L82.9 46.318C82.096 47.068 80.826 47.024 80.076 46.218L54.788 18.96C54.038 18.154 54.084 16.88 54.888 16.128L59.248 12.058C60.05 11.308 61.32 11.352 62.068 12.16L87.352 39.426ZM96.64 30.746C97.388 31.552 97.342 32.828 96.538 33.58L92.198 37.638C91.396 38.39 90.126 38.344 89.378 37.538L64.094 10.268C63.346 9.462 63.39 8.186 64.194 7.434L68.538 3.368C69.34 2.616 70.608 2.66 71.356 3.468L96.64 30.746V30.746Z" fill="#FE0039"/>
</svg>
