<svg width="61" height="61" viewBox="0 0 61 61" fill="none" xmlns="http://www.w3.org/2000/svg">
<path d="M16.0771 32.4886H22.7637V60.0161C22.7637 60.5596 23.2041 61 23.7476 61H35.0849C35.6284 61 36.0688 60.5596 36.0688 60.0161V32.6183H43.7556C44.2554 32.6183 44.6759 32.2432 44.733 31.7468L45.9004 21.6125C45.9325 21.3337 45.8441 21.0544 45.6576 20.8453C45.4709 20.6359 45.2036 20.5161 44.9232 20.5161H36.0692V14.1634C36.0692 12.2484 37.1003 11.2773 39.1341 11.2773C39.424 11.2773 44.9232 11.2773 44.9232 11.2773C45.4667 11.2773 45.9071 10.8367 45.9071 10.2935V0.991152C45.9071 0.447661 45.4667 0.00728065 44.9232 0.00728065H36.945C36.8888 0.00452581 36.7638 0 36.5796 0C35.1953 0 30.3836 0.271745 26.5827 3.76842C22.3713 7.6433 22.9568 12.2828 23.0967 13.0873V20.5159H16.0771C15.5336 20.5159 15.0933 20.9563 15.0933 21.4997V31.5045C15.0933 32.048 15.5336 32.4886 16.0771 32.4886Z" fill="#FE0039"/>
</svg>
