<svg width="100" height="100" viewBox="0 0 100 100" fill="none" xmlns="http://www.w3.org/2000/svg">
<path d="M37.8301 29.8516C38.1101 29.2913 38.5519 28.8281 39.0983 28.5219C39.6448 28.2158 40.2705 28.081 40.8945 28.1349C41.5185 28.1888 42.1119 28.4289 42.5978 28.8242C43.0836 29.2195 43.4395 29.7516 43.6192 30.3516L50.7286 54.0547L56.588 42.3516C56.8475 41.8326 57.2465 41.3961 57.7401 41.091C58.2338 40.786 58.8026 40.6244 59.3829 40.6244C59.9632 40.6244 60.532 40.786 61.0256 41.091C61.5193 41.3961 61.9182 41.8326 62.1778 42.3516L67.5567 53.125H86.4552C89.2689 47.3241 90.6964 40.9488 90.6251 34.502C90.502 22.3711 80.7696 12.5 68.9298 12.5C59.5372 12.5 53.3048 18.2695 50.0001 22.4609C46.7032 18.2637 40.463 12.5 31.0704 12.5C19.2305 12.5 9.49811 22.3711 9.37507 34.502C9.32457 38.691 9.9127 42.8632 11.1192 46.875H29.3184L37.8301 29.8516Z" fill="#FE0039"/>
<path d="M62.8301 57.6484L59.375 50.7383L52.7949 63.8984C52.5353 64.4173 52.1363 64.8537 51.6426 65.1586C51.149 65.4636 50.5802 65.6251 50 65.625C49.9128 65.625 49.8229 65.6211 49.7305 65.6133C49.105 65.5614 48.5096 65.3223 48.0219 64.9273C47.5342 64.5323 47.1767 63.9995 46.9961 63.3984L39.8867 39.6953L34.0273 51.3984C33.769 51.9147 33.3728 52.3493 32.8826 52.654C32.3923 52.9588 31.8272 53.1218 31.25 53.125H13.5449C15.3678 56.9388 17.7943 60.6927 20.8242 64.3867C24.4902 68.8555 31.1367 76 46.4863 86.4199C47.5215 87.1294 48.747 87.509 50.002 87.509C51.2569 87.509 52.4824 87.1294 53.5176 86.4199C68.8672 76 75.5137 68.8555 79.1797 64.3867C80.5001 62.7796 81.7387 61.1069 82.8906 59.375H65.625C65.0448 59.3751 64.476 59.2136 63.9823 58.9086C63.4887 58.6037 63.0897 58.1673 62.8301 57.6484Z" fill="#FE0039"/>
</svg>
