<svg width="62" height="62" viewBox="0 0 62 62" fill="none" xmlns="http://www.w3.org/2000/svg">
<path d="M43.5299 0H18.4701C8.28566 0 0 8.28566 0 18.4701V43.5299C0 53.7143 8.28566 62 18.4701 62H43.5299C53.7143 62 62 53.7143 62 43.5299V18.4701C61.9999 8.28566 53.7142 0 43.5299 0ZM55.7628 43.5299C55.7628 50.2859 50.2859 55.7628 43.5299 55.7628H18.4701C11.7141 55.7628 6.2372 50.2859 6.2372 43.5299V18.4701C6.2372 11.714 11.7141 6.2372 18.4701 6.2372H43.5299C50.2859 6.2372 55.7628 11.714 55.7628 18.4701V43.5299Z" fill="#FE0039"/>
<path d="M30.9998 14.9646C22.1578 14.9646 14.9644 22.1581 14.9644 30.9999C14.9644 39.8417 22.1578 47.0353 30.9998 47.0353C39.8417 47.0353 47.0352 39.8418 47.0352 30.9999C47.0352 22.158 39.8417 14.9646 30.9998 14.9646ZM30.9998 40.7982C25.5883 40.7982 21.2016 36.4114 21.2016 31C21.2016 25.5886 25.5884 21.2018 30.9998 21.2018C36.4112 21.2018 40.798 25.5886 40.798 31C40.798 36.4113 36.4111 40.7982 30.9998 40.7982Z" fill="#FE0039"/>
<path d="M47.0659 18.9275C49.188 18.9275 50.9082 17.2073 50.9082 15.0852C50.9082 12.9632 49.188 11.2429 47.0659 11.2429C44.9439 11.2429 43.2236 12.9632 43.2236 15.0852C43.2236 17.2073 44.9439 18.9275 47.0659 18.9275Z" fill="#FE0039"/>
</svg>
