<svg width="100" height="100" viewBox="0 0 100 100" fill="none" xmlns="http://www.w3.org/2000/svg">
<path d="M75 42.1875V31.25C75 17.5 63.75 6.25 50 6.25C36.25 6.25 25 17.5 25 31.25V42.1875C19.0625 48.4375 15.625 56.5625 15.625 65.625C15.625 76.5625 20.625 86.5625 29.375 93.125C30 93.4375 30.625 93.75 31.25 93.75H68.75C69.375 93.75 70 93.4375 70.625 93.125C79.375 86.5625 84.375 76.5625 84.375 65.625C84.375 56.5625 80.9375 48.125 75 42.1875ZM31.25 36.875V31.25C31.25 20.9375 39.6875 12.5 50 12.5C60.3125 12.5 68.75 20.9375 68.75 31.25V36.875C63.4375 33.4375 56.875 31.25 50 31.25C43.125 31.25 36.5625 33.4375 31.25 36.875ZM68.75 62.8125C68.4375 62.8125 68.125 62.8125 67.8125 62.8125C66.5625 62.8125 65.3125 61.875 64.6875 60.625C63.75 57.1875 61.25 54.375 58.4375 52.5C56.875 51.5625 56.5625 49.6875 57.5 48.125C58.4375 46.5625 60.3125 46.25 61.875 47.1875C65.9375 50 69.0625 54.0625 70.625 58.75C71.25 60.625 70.3125 62.1875 68.75 62.8125Z" fill="#FE0039"/>
</svg>
