<svg width="69" height="69" viewBox="0 0 69 69" fill="none" xmlns="http://www.w3.org/2000/svg">
<g clip-path="url(#clip0_29_23)">
<path d="M34.4999 0C20.1081 0 8.39966 11.7086 8.39966 26.1003C8.39966 32.0365 12.4915 40.7173 20.5612 51.9014C26.3953 59.9871 32.1353 66.3757 32.3767 66.6438L34.5001 69.0002L36.6235 66.6438C36.8649 66.3759 42.6049 59.9871 48.439 51.9014C56.5087 40.7173 60.6006 32.0367 60.6006 26.1003C60.6004 11.7086 48.8917 0 34.4999 0ZM34.4999 60.393C27.3103 51.9879 14.1158 34.7708 14.1158 26.1003C14.1158 14.8605 23.26 5.71618 34.4999 5.71618C45.7398 5.71618 54.884 14.8605 54.884 26.1003C54.8842 34.7708 41.6895 51.9879 34.4999 60.393Z" fill="#FE0039"/>
<path d="M34.4998 35.5695C39.7294 35.5695 43.9688 31.3301 43.9688 26.1005C43.9688 20.8709 39.7294 16.6315 34.4998 16.6315C29.2702 16.6315 25.0308 20.8709 25.0308 26.1005C25.0308 31.3301 29.2702 35.5695 34.4998 35.5695Z" fill="#FE0039"/>
</g>
<defs>
<clipPath id="clip0_29_23">
<rect width="69" height="69" fill="white"/>
</clipPath>
</defs>
</svg>
