<svg width="527" height="330" viewBox="0 0 527 330" fill="none" xmlns="http://www.w3.org/2000/svg">
<g clip-path="url(#clip0_3_460)">
<path d="M527 0.224991H0V329.6H527V0.224991Z" fill="#0A1627"/>
</g>
<g clip-path="url(#clip1_3_460)">
<g clip-path="url(#clip2_3_460)">
<path d="M274.617 248.727H257.512V327.411H274.617V248.727Z" fill="white"/>
<path d="M255.802 138.399C247.249 134.978 241.262 126.425 241.262 117.017C241.262 107.61 247.249 99.057 255.802 95.636V77.6755C237.841 81.9518 224.157 97.3465 224.157 117.017C224.157 136.688 237.841 152.083 255.802 156.359V138.399Z" fill="white"/>
<path d="M272.907 78.5308V96.4912C281.46 99.9122 287.446 108.465 287.446 117.873C287.446 127.281 281.46 135.833 272.907 139.254V157.215C290.867 152.938 304.552 137.544 304.552 117.873C304.552 98.2017 290.867 81.9518 272.907 78.5308Z" fill="white"/>
<path d="M378.104 1.55743H360.999V39.1888H165.999V1.55743H148.894V39.1888V56.294V93.0702H165.999V56.294H360.999V93.0702H378.104V56.294V39.1888V1.55743Z" fill="white"/>
<path d="M412.314 39.1888V16.0968H395.209V78.5308H412.314V56.294H421.722V39.1888H412.314Z" fill="white"/>
<path d="M114.684 39.1888H105.276V56.294H114.684V78.5308H131.789V16.0968H114.684V39.1888Z" fill="white"/>
<path d="M308.828 206.82H291.723V328.267H308.828V206.82Z" fill="white"/>
<path d="M240.407 206.82H223.302V328.267H240.407V206.82Z" fill="white"/>
</g>
<path d="M495.378 97.7963H31.6199V232.028H495.378V97.7963Z" fill="#0A1627"/>
<g clip-path="url(#clip3_3_460)">
<g clip-path="url(#clip4_3_460)">
<g clip-path="url(#clip5_3_460)">
<g clip-path="url(#clip6_3_460)">
<g clip-path="url(#clip7_3_460)">
<g clip-path="url(#clip8_3_460)">
<g clip-path="url(#clip9_3_460)">
<path d="M109.842 163.336C114.97 164.849 118.947 167.472 121.772 171.205C124.58 174.955 125.984 179.562 125.984 185.027C125.984 192.51 123.235 198.437 117.736 202.809C112.221 207.181 104.629 209.367 94.9603 209.367H52.7122V120.457H93.6992C102.948 120.457 110.287 122.517 115.719 126.636C121.133 130.756 123.84 136.389 123.84 143.536C123.84 148.16 122.604 152.212 120.133 155.693C117.644 159.191 114.214 161.738 109.842 163.336ZM71.8815 135.464V156.652H90.4202C95.4648 156.652 99.1893 155.786 101.594 154.054C103.982 152.338 105.176 149.715 105.176 146.184C105.176 142.485 103.982 139.769 101.594 138.037C99.1893 136.322 95.4648 135.464 90.4202 135.464H71.8815ZM92.6902 194.36C97.903 194.36 101.686 193.477 104.04 191.711C106.395 189.946 107.572 187.087 107.572 183.135C107.572 179.184 106.395 176.283 104.04 174.434C101.686 172.584 97.903 171.659 92.6902 171.659H71.8815V194.36H92.6902ZM200.896 209.367H139.605V120.457H200.896V135.717H158.774V156.525H198.374V171.785H158.774V194.107H200.896V209.367ZM273.159 176.83V120.457H291.572V209.367H276.943L232.677 152.742V209.367H214.39V120.457H228.893L273.159 176.83ZM350.946 210.502C341.95 210.502 334.114 208.61 327.439 204.827C320.746 201.044 315.617 195.705 312.053 188.811C308.471 181.916 306.68 173.929 306.68 164.849C306.68 155.769 308.471 147.782 312.053 140.887C315.617 133.993 320.746 128.671 327.439 124.921C334.114 121.188 341.95 119.322 350.946 119.322C356.831 119.322 362.465 120.221 367.845 122.021C373.226 123.837 377.64 126.342 381.087 129.537L374.782 143.536C370.914 140.593 367.072 138.449 363.255 137.104C359.421 135.759 355.444 135.086 351.325 135.086C343.421 135.086 337.351 137.608 333.114 142.653C328.859 147.697 326.732 155.096 326.732 164.849C326.732 174.602 328.859 182.017 333.114 187.095C337.351 192.19 343.421 194.738 351.325 194.738C355.444 194.738 359.421 194.065 363.255 192.72C367.072 191.375 370.914 189.231 374.782 186.288L381.087 200.287C377.64 203.482 373.226 205.979 367.845 207.778C362.465 209.594 356.831 210.502 350.946 210.502ZM454.99 156.399V120.457H474.286V209.367H454.99V172.037H414.003V209.367H394.708V120.457H414.003V156.399H454.99Z" fill="#FE0039"/>
</g>
</g>
</g>
</g>
</g>
</g>
</g>
</g>
<defs>
<clipPath id="clip0_3_460">
<rect width="527" height="329.375" fill="white" transform="translate(0 0.224991)"/>
</clipPath>
<clipPath id="clip1_3_460">
<rect width="526.998" height="329.374" fill="white" transform="translate(0 0.224991)"/>
</clipPath>
<clipPath id="clip2_3_460">
<rect width="316.446" height="326.709" fill="white" transform="translate(105.276 1.5574)"/>
</clipPath>
<clipPath id="clip3_3_460">
<rect width="421.599" height="91.1803" fill="white" transform="translate(52.6997 119.322)"/>
</clipPath>
<clipPath id="clip4_3_460">
<rect width="421.599" height="91.1803" fill="white" transform="translate(52.6997 119.322)"/>
</clipPath>
<clipPath id="clip5_3_460">
<rect width="421.599" height="91.1803" fill="white" transform="translate(52.6997 119.322)"/>
</clipPath>
<clipPath id="clip6_3_460">
<rect width="421.599" height="91.1803" fill="white" transform="translate(52.6997 119.322)"/>
</clipPath>
<clipPath id="clip7_3_460">
<rect width="421.599" height="91.1803" fill="white" transform="translate(52.6997 119.322)"/>
</clipPath>
<clipPath id="clip8_3_460">
<rect width="421.599" height="91.1803" fill="white" transform="translate(52.6997 119.322)"/>
</clipPath>
<clipPath id="clip9_3_460">
<rect width="421.599" height="91.1803" fill="white" transform="translate(52.6997 119.322)"/>
</clipPath>
</defs>
</svg>
