<svg width="80" height="80" viewBox="0 0 80 80" fill="none" xmlns="http://www.w3.org/2000/svg">
<path d="M73.8397 10.0084H6.16034C2.76793 10.0084 0 12.7764 0 16.1688V63.8312C0 67.2236 2.76793 69.9915 6.16034 69.9915H73.8397C77.2321 69.9915 80 67.2236 80 63.8312V16.1688C80 12.7764 77.2321 10.0084 73.8397 10.0084ZM72.9452 14.5654L40.4219 42.3797L7.89873 14.5654H72.9452ZM75.443 63.8312C75.443 64.7088 74.7173 65.4346 73.8397 65.4346H6.16034C5.2827 65.4346 4.55696 64.7088 4.55696 63.8312V17.7046L38.9367 47.1055C38.9536 47.1223 38.9873 47.1392 39.0042 47.1561C39.0211 47.173 39.0549 47.1899 39.0717 47.2067C39.1224 47.2405 39.1561 47.2742 39.2068 47.2911C39.2236 47.308 39.2405 47.308 39.2574 47.3249C39.3249 47.3586 39.3924 47.3924 39.4599 47.4261C39.4768 47.4261 39.4937 47.443 39.5106 47.443C39.5612 47.4599 39.6118 47.4937 39.6793 47.5105C39.6962 47.5105 39.73 47.5274 39.7468 47.5274C39.7975 47.5443 39.8481 47.5612 39.8987 47.5612C39.9156 47.5612 39.9494 47.578 39.9662 47.578C40.0169 47.5949 40.0844 47.5949 40.135 47.6118C40.1519 47.6118 40.1688 47.6118 40.1857 47.6118C40.2532 47.6118 40.3376 47.6287 40.4051 47.6287C40.4726 47.6287 40.557 47.6287 40.6245 47.6118C40.6414 47.6118 40.6582 47.6118 40.6751 47.6118C40.7257 47.6118 40.7933 47.5949 40.8439 47.578C40.8608 47.578 40.8945 47.5612 40.9114 47.5612C40.962 47.5443 41.0127 47.5274 41.0633 47.5274C41.0802 47.5274 41.1139 47.5105 41.1308 47.5105C41.1814 47.4937 41.2321 47.4768 41.2996 47.443C41.3165 47.443 41.3333 47.4261 41.3502 47.4261C41.4177 47.3924 41.4852 47.3586 41.5527 47.3249C41.5696 47.308 41.5865 47.308 41.6034 47.2911C41.654 47.2574 41.6878 47.2405 41.7384 47.2067C41.7553 47.1899 41.789 47.173 41.8059 47.1561C41.8228 47.1392 41.8565 47.1223 41.8734 47.1055L75.443 18.4304V63.8312Z" fill="#FE0039"/>
</svg>
