<svg width="75" height="75" viewBox="0 0 75 75" fill="none" xmlns="http://www.w3.org/2000/svg">
<path fill-rule="evenodd" clip-rule="evenodd" d="M18.2509 30.8013C23.8363 42.9634 33.7753 52.6328 46.131 57.8722L46.1697 57.8887L48.5569 58.9525C51.5963 60.3069 55.1688 59.345 57.1175 56.6478L61.1 51.1362C61.3432 50.7994 61.2807 50.3312 60.9572 50.0706L54.005 44.4619C53.6594 44.1828 53.1513 44.2478 52.8866 44.6047L50.181 48.2559C49.5238 49.1425 48.3369 49.4506 47.3316 48.9956C38.0928 44.8147 30.6687 37.3906 26.4876 28.1518C26.0326 27.1463 26.3407 25.9595 27.2275 25.3024L30.8786 22.5966C31.2354 22.3322 31.3003 21.824 31.0215 21.4784L25.412 14.5251C25.1513 14.2019 24.6833 14.1392 24.3467 14.3822L18.8052 18.3827C16.0902 20.3427 15.1341 23.9453 16.5199 26.9936L18.2491 30.7972C18.2497 30.7986 18.2503 30.7999 18.2509 30.8013ZM44.281 62.1794C30.856 56.4806 20.058 45.9712 13.9891 32.7531L13.9855 32.7453L12.2527 28.9335C9.94296 23.8531 11.5365 17.8487 16.0614 14.5821L21.603 10.5816C23.9596 8.88029 27.2353 9.3197 29.0603 11.5819L34.6697 18.5351C36.6216 20.9544 36.1669 24.5119 33.6697 26.3626L31.5775 27.9131C35.1116 34.7706 40.7128 40.3719 47.57 43.9059L49.1207 41.8137C50.9713 39.3162 54.5288 38.8619 56.9482 40.8134L63.9006 46.4222C66.1635 48.2478 66.6022 51.5247 64.8994 53.8812L60.9172 59.3931C57.6691 63.8884 51.7147 65.4912 46.6491 63.2344L44.281 62.1794Z" fill="#FE0039"/>
</svg>
