<svg width="66" height="66" viewBox="0 0 66 66" fill="none" xmlns="http://www.w3.org/2000/svg">
<g clip-path="url(#clip0_32_20)">
<path d="M64.5039 12.2181C63.4671 12.678 62.4011 13.0661 61.3119 13.3812C62.6014 11.9228 63.5846 10.2068 64.1848 8.32898C64.3193 7.90807 64.1799 7.44735 63.8339 7.17206C63.4884 6.89657 63.0083 6.86357 62.6278 7.08903C60.3146 8.46098 57.819 9.44693 55.2022 10.0235C52.5662 7.44777 48.986 5.98193 45.2849 5.98193C37.4724 5.98193 31.1164 12.3377 31.1164 20.15C31.1164 20.7653 31.1554 21.3772 31.2325 21.9805C21.5379 21.1294 12.5251 16.3644 6.33598 8.77246C6.11541 8.50186 5.77562 8.35602 5.42774 8.38391C5.07964 8.41116 4.76689 8.60746 4.59103 8.90914C3.33575 11.0631 2.67213 13.5266 2.67213 16.0331C2.67213 19.447 3.891 22.6861 6.04409 25.2171C5.38941 24.9904 4.75411 24.707 4.14776 24.3704C3.82223 24.1892 3.42496 24.192 3.10156 24.3774C2.77794 24.5628 2.57505 24.9039 2.56653 25.2767C2.56504 25.3395 2.56504 25.4023 2.56504 25.466C2.56504 30.5618 5.30766 35.1497 9.50079 37.6502C9.14056 37.6142 8.78054 37.5621 8.42286 37.4937C8.05411 37.4233 7.67493 37.5525 7.42626 37.8337C7.17716 38.1148 7.09477 38.5065 7.20952 38.8642C8.76159 43.7099 12.7576 47.2741 17.5883 48.3607C13.5817 50.8702 8.99983 52.1847 4.18992 52.1847C3.18629 52.1847 2.17692 52.1257 1.18905 52.0088C0.698305 51.9505 0.229067 52.2403 0.0619375 52.707C-0.105192 53.1738 0.071944 53.6944 0.489447 53.962C6.66854 57.9239 13.8134 60.0181 21.1511 60.0181C35.5761 60.0181 44.6 53.2158 49.6299 47.5093C55.902 40.3939 59.4992 30.9757 59.4992 21.6699C59.4992 21.2812 59.4932 20.8886 59.4813 20.4972C61.9559 18.6329 64.0864 16.3765 65.8201 13.7831C66.0834 13.3893 66.0549 12.8687 65.7498 12.5061C65.4452 12.1434 64.9374 12.026 64.5039 12.2181Z" fill="#FE0039"/>
</g>
<defs>
<clipPath id="clip0_32_20">
<rect width="66" height="66" fill="white"/>
</clipPath>
</defs>
</svg>
